# xmcd CD database file
#
# Track frame offsets:
#	150
#	20018
#	43215
#	57688
#	90395
#	116230
#	141290
#	162561
#	181893
#	204819
#	218807
#	238541
#
# Disc length: 3324 seconds
#
# Revision: 2
# Processed by: cddbd v1.4PL0 Copyright (c) Steve Scherf et al.
# Submitted via: CDex 1.50beta8
#
DISCID=af0cfa0c
DTITLE=Tom Principato - Really Blue
DYEAR=1997
DGENRE=Blues
TTITLE0=Every Minute, Every Hour
TTITLE1=Sweet Little Woman
TTITLE2=One For Danny
TTITLE3=Stranger's Eyes
TTITLE4=Walkin' Blues
TTITLE5=Really Blue
TTITLE6=Standing At The Cross Roads Again
TTITLE7=In Orbit
TTITLE8=Kansas City Blues
TTITLE9=Baby, Please
TTITLE10=In Another Dream
TTITLE11=Here, In My Heart...
EXTD=YEAR: 1997
EXTT0=
EXTT1=
EXTT2=
EXTT3=
EXTT4=
EXTT5=
EXTT6=
EXTT7=
EXTT8=
EXTT9=
EXTT10=
EXTT11=
PLAYORDER=
